<?xml version="1.0" encoding="UTF-8" standalone="no"?>
<svg
   xmlns:dc="http://purl.org/dc/elements/1.1/"
   xmlns:cc="http://creativecommons.org/ns#"
   xmlns:rdf="http://www.w3.org/1999/02/22-rdf-syntax-ns#"
   xmlns:svg="http://www.w3.org/2000/svg"
   xmlns="http://www.w3.org/2000/svg"
   xmlns:sodipodi="http://sodipodi.sourceforge.net/DTD/sodipodi-0.dtd"
   xmlns:inkscape="http://www.inkscape.org/namespaces/inkscape"
   fill="#777"
   width="100pt"
   height="100pt"
   version="1.1"
   viewBox="0 0 100 100"
   id="svg3412"
   inkscape:version="0.91 r13725"
   sodipodi:docname="code-refactorings.svg">
  <metadata
     id="metadata3432">
    <rdf:RDF>
      <cc:Work
         rdf:about="">
        <dc:format>image/svg+xml</dc:format>
        <dc:type
           rdf:resource="http://purl.org/dc/dcmitype/StillImage" />
        <dc:title></dc:title>
      </cc:Work>
    </rdf:RDF>
  </metadata>
  <defs
     id="defs3430" />
  <sodipodi:namedview
     pagecolor="#ffffff"
     bordercolor="#666666"
     borderopacity="1"
     objecttolerance="10"
     gridtolerance="10"
     guidetolerance="10"
     inkscape:pageopacity="0"
     inkscape:pageshadow="2"
     inkscape:window-width="1280"
     inkscape:window-height="657"
     id="namedview3428"
     showgrid="false"
     inkscape:snap-object-midpoints="false"
     inkscape:snap-center="true"
     inkscape:zoom="2.8284271"
     inkscape:cx="75.731773"
     inkscape:cy="67.273182"
     inkscape:window-x="-8"
     inkscape:window-y="-8"
     inkscape:window-maximized="1"
     inkscape:current-layer="svg3412" />
  <path
     inkscape:connector-curvature="0"
     id="path3416"
     d="m 81.242838,100.02711 -63.356556,0 c -7.477698,0 -13.5618217,-5.683049 -13.5618217,-12.665848 l 0,-74.456798 c 0,-6.9742405 6.0843537,-12.64873386 13.5618217,-12.64873386 l 63.356556,0 c 7.491117,0 13.580173,5.67470736 13.580173,12.64873386 l 0,74.456798 c 0.0045,6.982585 -6.088826,12.665848 -13.580173,12.665848 z M 17.886282,4.1838553 c -5.15691,0 -9.3504772,3.911223 -9.3504772,8.7209297 l 0,74.456798 c 0,4.818051 4.1935672,8.741897 9.3504772,8.741897 l 63.356556,0 c 5.165857,0 9.372957,-3.919674 9.372957,-8.741897 l 0,-74.456798 c 0,-4.8097067 -4.202627,-8.7209297 -9.372957,-8.7209297 z" />
  <path
     inkscape:connector-curvature="0"
     id="path3424"
     d="m 74.929892,77.79983 c -1.854886,-0.346835 -3.485769,-3.092222 -3.539447,-5.089661 -0.01792,-0.580842 0.09857,-1.082267 0.336029,-1.429081 1.146974,-1.759205 2.32526,-4.412721 -0.743744,-7.162302 -1.2814,-1.144954 -2.746429,-2.436144 -4.852274,-2.436144 -1.214186,0 -2.37458,0.426232 -3.570874,1.320501 -0.116487,0.09194 -0.403231,0.188041 -0.994645,0.330114 l -0.2509,0.06267 -0.03585,-0.01672 c -2.32526,-0.171331 -5.371968,-2.198017 -5.591498,-2.983642 -0.371872,-1.383187 -1.245499,-4.571472 -5.542179,-4.571472 l -1.111132,0 c -4.395204,0 -5.286862,3.439034 -5.573605,4.571472 -0.268828,0.877528 -3.38713,2.812268 -5.591499,2.983642 l -0.03585,0.01672 -0.470441,-0.108644 c -0.353946,-0.09194 -0.654131,-0.171331 -0.79303,-0.267438 -1.178287,-0.910957 -2.338795,-1.337189 -3.539448,-1.337189 -2.056524,0 -3.485769,1.241125 -4.731267,2.34008 l -0.174731,0.158794 c -2.997387,2.716205 -1.818986,5.373787 -0.654131,7.133099 0.403231,0.597552 0.506286,1.980751 -0.2509,3.597893 -0.672059,1.508563 -1.868306,2.670205 -2.997388,2.891643 -4.260779,0.848281 -4.48031,3.752472 -4.565531,4.855706 l 0.01793,2.310877 c 0.201615,2.561518 1.733881,4.132768 4.547523,4.63416 1.111132,0.221471 2.276056,1.337188 2.997388,2.858267 0.04929,0.09194 0.08512,0.171331 0.116486,0.250728 l 4.381786,0 C 31.582269,92.149784 31.344811,91.552264 31.058068,90.908701 29.776667,88.175808 27.51862,86.257745 25.0454,85.773041 24.03284,85.585 23.898426,85.472174 23.849106,84.828655 l 0,-2.026643 c 0.04929,-0.831561 0.183698,-0.944387 1.227606,-1.161643 2.491113,-0.484726 4.731268,-2.419455 5.994775,-5.18166 1.214187,-2.653516 1.196294,-5.340409 -0.04929,-7.17899 -0.860231,-1.320501 -0.793029,-1.554455 0.09857,-2.356769 l 0.15233,-0.125363 c 0.940874,-0.819023 1.447136,-1.211814 1.769781,-1.211814 0.0672,0 0.336029,0.03343 0.824388,0.409511 0.842303,0.693669 1.854886,0.927678 2.594111,1.098955 l 0.0672,0.01672 c 0.0672,0.03343 0.134414,0.04596 0.201616,0.04596 l 0.08513,0.03343 0.385314,0.142073 0.371872,0 c 3.673872,-0.04596 9.180266,-2.937642 9.973284,-5.983972 0.371871,-1.445875 0.640688,-1.617142 1.496457,-1.617142 l 1.178286,0 c 0.79303,0 1.01256,0.158794 1.415825,1.633831 0.842315,3.033706 6.317304,5.921284 9.937499,5.967177 l 0.385315,0 0.336029,-0.125364 c 0.04929,-0.01672 0.116486,-0.03343 0.201614,-0.04596 0.0672,-0.01672 0.134414,-0.03343 0.201615,-0.06267 0.757187,-0.171331 1.720461,-0.409511 2.544907,-1.053031 0.537643,-0.426231 0.80646,-0.455478 0.891588,-0.455478 0.237458,0 0.640689,0.158793 1.97142,1.412392 0.80646,0.693669 0.891588,0.944386 0.04929,2.248188 -0.658615,0.973645 -0.994644,2.214705 -0.958801,3.581205 0.09857,3.614581 2.759849,8.010615 6.890791,8.812929 1.026003,0.204761 1.160393,0.313405 1.227607,0.973644 l 0,2.055955 c -0.01792,0.0794 -0.01792,0.125363 -0.01792,0.17133 0,0.04596 -0.01792,0.108644 -0.01792,0.171332 -0.09857,0.426232 -0.286744,0.597552 -1.214188,0.752174 -2.477693,0.484726 -4.717848,2.419455 -5.963347,5.181659 -0.286743,0.597552 -0.506286,1.195125 -0.640688,1.759205 l 4.381785,0 c 0.03584,-0.0794 0.0672,-0.158794 0.09857,-0.234008 0.707901,-1.525251 1.854887,-2.653517 2.930175,-2.874955 3.234811,-0.564123 4.229467,-2.402768 4.498318,-3.848643 0.0672,-0.313404 0.09857,-0.580842 0.116487,-0.956924 l 0,-2.29408 c -0.05824,-0.961108 -0.295702,-3.852816 -4.556584,-4.701021 z" />
  <path
     inkscape:connector-curvature="0"
     id="path3426"
     d="M 63.760659,82.73566 C 63.626245,81.243892 63.223014,79.781329 62.564364,78.431624 60.256996,73.672089 55.171772,70.5589 49.580617,70.513007 42.152125,70.558971 36.023384,75.870106 35.363874,82.861142 l 0,1.838687 c 0.304659,3.04633 1.72046,5.921285 3.960616,8.089991 l 2.612004,0 c -2.759849,-1.997439 -4.52963,-4.947597 -4.834266,-8.152678 l 0,-1.696518 c 0.591403,-6.10924 5.945455,-10.747787 12.482519,-10.806623 4.901479,0.03343 9.364011,2.766269 11.402528,6.957553 0.555572,1.178437 0.927432,2.465454 1.04393,3.706472 l 0.01792,1.696519 c -0.322587,3.313766 -2.087837,6.31399 -4.852274,8.294741 l 2.594111,0 c 2.276056,-2.198017 3.687292,-5.10635 4.009937,-8.198678 z" />
  <path
     d="m 24.230146,22.702774 c 1.853127,0.35492 3.470227,3.107391 3.513889,5.105042 0.01501,0.580914 -0.104001,1.081825 -0.34319,1.427598 -1.155782,1.754184 -2.347361,4.402532 0.707822,7.165469 1.275645,1.150531 2.734185,2.448097 4.840006,2.457281 1.214174,0.0054 2.376692,-0.415869 3.577457,-1.30491 0.116947,-0.09142 0.404168,-0.18628 0.996288,-0.325773 l 0.251212,-0.06159 0.03576,0.01689 c 2.324375,0.181471 5.360887,2.221424 5.576477,3.007997 0.364933,1.384796 1.222563,4.576856 5.519196,4.595596 l 1.111119,0.0048 c 4.395157,0.01917 5.304049,-3.415937 5.596466,-4.547112 0.273226,-0.876346 3.401194,-2.797464 5.606398,-2.959222 l 0.03592,-0.01656 0.469894,0.110695 c 0.353479,0.09347 0.653265,0.174183 0.791679,0.270894 1.173706,0.916086 2.332065,1.347374 3.532705,1.352612 2.056501,0.009 3.491954,-1.225908 4.742949,-2.319419 l 0.175525,-0.158029 c 3.010974,-2.7031 1.845911,-5.365794 0.68989,-7.130167 -0.400231,-0.599305 -0.496348,-1.982937 0.268937,-3.59676 0.679616,-1.505614 1.881674,-2.662027 3.011855,-2.878539 4.264986,-0.829687 4.499075,-3.732888 4.589826,-4.835738 l -0.0063,-2.310929 C 79.333155,13.210539 77.808785,11.632623 74.997687,11.118964 73.887679,10.89265 72.728361,9.7718636 72.014665,8.2476547 71.965838,8.1555064 71.930397,8.0759543 71.899437,7.9964216 l -4.381738,-0.019116 c 0.131584,0.5647021 0.366044,1.1632513 0.649558,1.8080575 1.267683,2.7384513 3.516087,4.6663423 5.986849,5.1618293 1.011608,0.192454 1.145454,0.305867 1.191547,0.949595 l -0.0102,2.02662 c -0.05345,0.831335 -0.188433,0.943574 -1.233418,1.156275 -2.493517,0.473855 -4.743349,2.398792 -6.020692,5.155455 -1.227477,2.648193 -1.223058,5.335134 0.01329,7.179128 0.853601,1.324238 0.785226,1.557896 -0.110385,2.356312 l -0.152957,0.124698 c -0.944969,0.814911 -1.453196,1.205489 -1.775836,1.204081 -0.0672,-2.93e-4 -0.335858,-0.0349 -0.822326,-0.413103 -0.838817,-0.697334 -1.850215,-0.935756 -2.588572,-1.110257 l -0.06713,-0.01701 c -0.06703,-0.03372 -0.134181,-0.04655 -0.201383,-0.04684 l -0.08495,-0.0338 -0.384598,-0.143753 -0.371867,-0.0017 c -3.674063,0.02994 -9.194896,2.89757 -10.00318,5.940406 -0.379118,1.444239 -0.648789,1.614332 -1.504549,1.610598 l -1.178274,-0.0052 c -0.793012,-0.0034 -1.011745,-0.163201 -1.407609,-1.63998 -0.827095,-3.037348 -6.287545,-5.948774 -9.907469,-6.010457 l -0.38531,-0.0018 -0.336654,0.123896 c -0.04936,0.0165 -0.116653,0.03292 -0.201844,0.04509 -0.06728,0.01643 -0.13458,0.03284 -0.201927,0.0618 -0.758037,0.168025 -1.722496,0.402003 -2.550159,1.041918 -0.539775,0.423882 -0.808735,0.451956 -0.893862,0.451585 -0.237457,-0.001 -0.639886,-0.161587 -1.964316,-1.420976 -0.802974,-0.697179 -0.886844,-0.948265 -0.03801,-2.248378 0.66349,-0.970761 1.005738,-2.210344 0.976747,-3.576984 -0.08045,-3.614972 -2.719652,-8.022565 -6.846526,-8.842888 -1.024964,-0.209233 -1.158809,-0.318462 -1.222711,-0.978988 l 0.01031,-2.055931 c 0.01833,-0.07932 0.01856,-0.125285 0.01879,-0.171252 2.3e-4,-0.04596 0.01847,-0.108564 0.01879,-0.171251 0.100704,-0.425797 0.289738,-0.596295 1.217946,-0.746869 2.480097,-0.473914 4.729929,-2.398852 5.989264,-5.1555932 0.289736,-0.5962952 0.512273,-1.1929037 0.649502,-1.7563918 l -4.381737,-0.019116 c -0.03624,0.079237 -0.06799,0.1584985 -0.09974,0.2335747 -0.715541,1.5221464 -1.868171,2.6453976 -2.944558,2.8621436 -3.237605,0.550008 -4.241468,2.384293 -4.517567,3.82898 -0.06877,0.313109 -0.101488,0.580408 -0.121283,0.956407 l -0.0115,2.294054 c 0.05342,0.961351 0.276379,3.854064 4.532963,4.720844 z"
     id="path3440"
     inkscape:connector-curvature="0" />
  <path
     d="m 35.395493,17.998621 c 0.146873,1.490745 0.562309,2.950333 1.232215,4.295211 2.347061,4.742623 7.458138,7.818762 13.049507,7.824021 7.427883,-0.09995 13.512068,-5.455459 14.113153,-12.451075 l -0.01536,-1.838633 C 63.444909,12.784122 62.005133,9.9195437 59.746927,7.7671836 l -2.611925,0.018978 c 2.776453,1.9773221 4.570827,4.9145298 4.90223,8.1172998 l 0.01417,1.696466 c -0.540346,6.113352 -5.855484,10.790666 -12.391858,10.897008 -4.901609,0.0022 -9.386837,-2.698136 -11.460308,-6.874477 -0.5654,-1.174365 -0.948,-2.45864 -1.074862,-3.698774 l -0.03211,-1.696336 c 0.294892,-3.316012 2.035025,-6.3289723 4.78283,-8.3297519 l -2.594032,0.018849 c -2.257623,2.2144917 -3.64452,5.1329907 -3.941321,8.2275697 z"
     id="path3442"
     inkscape:connector-curvature="0" />
</svg>
