<?xml version="1.0" encoding="UTF-8" standalone="no"?>
<svg
   xmlns:dc="http://purl.org/dc/elements/1.1/"
   xmlns:cc="http://creativecommons.org/ns#"
   xmlns:rdf="http://www.w3.org/1999/02/22-rdf-syntax-ns#"
   xmlns:svg="http://www.w3.org/2000/svg"
   xmlns="http://www.w3.org/2000/svg"
   xmlns:sodipodi="http://sodipodi.sourceforge.net/DTD/sodipodi-0.dtd"
   xmlns:inkscape="http://www.inkscape.org/namespaces/inkscape"
   fill="#777"
   width="100pt"
   height="100pt"
   version="1.1"
   viewBox="0 0 100 100"
   id="svg3559"
   inkscape:version="0.91 r13725"
   sodipodi:docname="consistent-usage.svg">
  <metadata
     id="metadata3579">
    <rdf:RDF>
      <cc:Work
         rdf:about="">
        <dc:format>image/svg+xml</dc:format>
        <dc:type
           rdf:resource="http://purl.org/dc/dcmitype/StillImage" />
      </cc:Work>
    </rdf:RDF>
  </metadata>
  <defs
     id="defs3577" />
  <sodipodi:namedview
     pagecolor="#ffffff"
     bordercolor="#666666"
     borderopacity="1"
     objecttolerance="10"
     gridtolerance="10"
     guidetolerance="10"
     inkscape:pageopacity="0"
     inkscape:pageshadow="2"
     inkscape:window-width="1280"
     inkscape:window-height="657"
     id="namedview3575"
     showgrid="false"
     inkscape:zoom="2.6700352"
     inkscape:cx="18.827137"
     inkscape:cy="76.151803"
     inkscape:window-x="-8"
     inkscape:window-y="-8"
     inkscape:window-maximized="1"
     inkscape:current-layer="g3561" />
  <g
     id="g3561">
    <path
       d="m 80.155248,100.22846 -61.530804,0 c -7.262213,0 -13.1710098,-5.687969 -13.1710098,-12.676807 l 0,-74.521194 c 0,-6.9802731 5.9090198,-12.65967418 13.1710098,-12.65967418 l 61.530804,0 c 7.275244,0 13.188832,5.67961538 13.188832,12.65967418 l 0,74.521194 c 0.0043,6.988625 -5.913365,12.676807 -13.188832,12.676807 z M 18.624444,4.3023073 c -5.008304,0 -9.081024,3.9146058 -9.081024,8.7284727 l 0,74.521195 c 0,4.822218 4.07272,8.749457 9.081024,8.749457 l 61.530804,0 c 5.016991,0 9.102855,-3.923064 9.102855,-8.749457 l 0,-74.521195 c 0,-4.8138669 -4.08152,-8.7284727 -9.102855,-8.7284727 z"
       id="path3563"
       inkscape:connector-curvature="0" />
    <path
       d="m 28.286304,19.379568 48.624906,0 0,1.572609 -48.624906,0 z"
       id="path3565"
       inkscape:connector-curvature="0" />
    <path
       d="m 28.286304,32.168794 48.624906,0 0,1.572608 -48.624906,0 z"
       id="path3567"
       inkscape:connector-curvature="0" />
    <path
       d="m 28.286304,45.03832 48.624906,0 0,1.572609 -48.624906,0 z"
       id="path3569"
       inkscape:connector-curvature="0" />
    <path
       id="path3581"
       d="m 28.286304,57.067365 48.624906,0 0,1.572608 -48.624906,0 z"
       inkscape:connector-curvature="0" />
    <path
       id="path3583"
       d="m 28.286304,69.85659 48.624906,0 0,1.572609 -48.624906,0 z"
       inkscape:connector-curvature="0" />
    <path
       id="path3585"
       d="m 28.286304,82.726117 48.624906,0 0,1.572609 -48.624906,0 z"
       inkscape:connector-curvature="0" />
    <g
       id="g4433"
       transform="matrix(0.67766019,0,0,0.72252502,-63.790664,-7.9718202)">
      <path
         inkscape:connector-curvature="0"
         id="path3358"
         d="m 112.8772,39.08945 2.33211,-2.379815 2.37981,2.332103 -2.3321,2.379815 z" />
      <path
         inkscape:connector-curvature="0"
         d="m 115.13368,41.293765 9.29854,-9.554021 2.38779,2.323939 -9.29854,9.554021 z"
         id="path3394" />
    </g>
    <g
       transform="matrix(0.67766019,0,0,0.72252502,-63.790664,4.8281798)"
       id="g4437">
      <path
         d="m 112.8772,39.08945 2.33211,-2.379815 2.37981,2.332103 -2.3321,2.379815 z"
         id="path4439"
         inkscape:connector-curvature="0" />
      <path
         id="path4441"
         d="m 115.13368,41.293765 9.29854,-9.554021 2.38779,2.323939 -9.29854,9.554021 z"
         inkscape:connector-curvature="0" />
    </g>
    <g
       id="g4443"
       transform="matrix(0.67766019,0,0,0.72252502,-63.790664,17.62818)">
      <path
         inkscape:connector-curvature="0"
         id="path4445"
         d="m 112.8772,39.08945 2.33211,-2.379815 2.37981,2.332103 -2.3321,2.379815 z" />
      <path
         inkscape:connector-curvature="0"
         d="m 115.13368,41.293765 9.29854,-9.554021 2.38779,2.323939 -9.29854,9.554021 z"
         id="path4447" />
    </g>
    <g
       transform="matrix(0.67766019,0,0,0.72252502,-63.790664,30.42818)"
       id="g4449">
      <path
         d="m 112.8772,39.08945 2.33211,-2.379815 2.37981,2.332103 -2.3321,2.379815 z"
         id="path4451"
         inkscape:connector-curvature="0" />
      <path
         id="path4453"
         d="m 115.13368,41.293765 9.29854,-9.554021 2.38779,2.323939 -9.29854,9.554021 z"
         inkscape:connector-curvature="0" />
    </g>
    <g
       id="g4455"
       transform="matrix(0.67766019,0,0,0.72252502,-63.790664,43.22818)">
      <path
         inkscape:connector-curvature="0"
         id="path4457"
         d="m 112.8772,39.08945 2.33211,-2.379815 2.37981,2.332103 -2.3321,2.379815 z" />
      <path
         inkscape:connector-curvature="0"
         d="m 115.13368,41.293765 9.29854,-9.554021 2.38779,2.323939 -9.29854,9.554021 z"
         id="path4459" />
    </g>
    <g
       transform="matrix(0.67766019,0,0,0.72252502,-63.790664,56.02818)"
       id="g4461">
      <path
         d="m 112.8772,39.08945 2.33211,-2.379815 2.37981,2.332103 -2.3321,2.379815 z"
         id="path4463"
         inkscape:connector-curvature="0" />
      <path
         id="path4465"
         d="m 115.13368,41.293765 9.29854,-9.554021 2.38779,2.323939 -9.29854,9.554021 z"
         inkscape:connector-curvature="0" />
    </g>
  </g>
</svg>
